<svg width="32" height="32" viewBox="0 0 32 32" fill="none" xmlns="http://www.w3.org/2000/svg">
<g clip-path="url(#clip0_208_1261)">
<rect width="32" height="32" rx="4" fill="#001A4C"/>
<g clip-path="url(#clip1_208_1261)">
<path d="M15.4686 21.5973C12.3676 21.451 9.90054 18.8962 9.90054 15.7562C9.90054 12.5285 12.5236 9.90542 15.7513 9.90542C18.8913 9.90542 21.4461 12.3725 21.5924 15.4734L19.5446 14.8591C19.1448 13.1331 17.5943 11.8557 15.7513 11.8557C13.5963 11.8557 11.8508 13.6012 11.8508 15.7562C11.8508 17.5992 13.1282 19.1497 14.8542 19.5495L15.4686 21.5973ZM25.5027 15.7562C25.5027 16.0488 25.4929 16.3413 25.4637 16.6338L23.5427 16.0585C23.5524 15.961 23.5524 15.8537 23.5524 15.7562C23.5524 11.4461 20.0614 7.95515 15.7513 7.95515C11.4412 7.95515 7.95027 11.4461 7.95027 15.7562C7.95027 20.0663 11.4412 23.5573 15.7513 23.5573C15.8489 23.5573 15.9561 23.5573 16.0536 23.5475L16.629 25.4686C16.3364 25.4978 16.0439 25.5076 15.7513 25.5076C10.3686 25.5076 6 21.139 6 15.7562C6 10.3735 10.3686 6.00488 15.7513 6.00488C21.1341 6.00488 25.5027 10.3735 25.5027 15.7562ZM21.8264 19.9103L25.5027 18.6816L15.7513 15.7562L18.6767 25.5076L19.9054 21.8313L24.0692 25.9951L26 24.0644L21.8264 19.9103Z" fill="white"/>
</g>
</g>
<defs>
<clipPath id="clip0_208_1261">
<rect width="32" height="32" rx="4" fill="white"/>
</clipPath>
<clipPath id="clip1_208_1261">
<rect width="24" height="24" fill="white" transform="translate(4 4)"/>
</clipPath>
</defs>
</svg>
