<svg width="21" height="21" viewBox="0 0 21 21" fill="none" xmlns="http://www.w3.org/2000/svg">
<path d="M2.05 20.4887C1.83333 20.2283 1.725 19.9279 1.725 19.5874C1.725 19.247 1.83333 18.9465 2.05 18.6862L8.1 11.416C8.2 11.2958 8.30833 11.2105 8.425 11.16C8.54167 11.1104 8.66667 11.0855 8.8 11.0855C8.93333 11.0855 9.05833 11.1104 9.175 11.16C9.29167 11.2105 9.4 11.2958 9.5 11.416L12.8 15.3816L19.2 6.72943C19.3833 6.46906 19.621 6.33888 19.913 6.33888C20.2043 6.33888 20.45 6.45905 20.65 6.69939C20.8333 6.9197 20.9293 7.18527 20.938 7.4961C20.946 7.80614 20.8583 8.08132 20.675 8.32166L13.5 18.0253C13.4 18.1655 13.2877 18.2704 13.163 18.3401C13.0377 18.4106 12.9083 18.4458 12.775 18.4458C12.6417 18.4458 12.5127 18.4158 12.388 18.3557C12.2627 18.2956 12.15 18.2055 12.05 18.0853L8.8 14.1799L3.55 20.4887C3.33333 20.7491 3.08333 20.8793 2.8 20.8793C2.51667 20.8793 2.26667 20.7491 2.05 20.4887ZM2.3 12.7378C2.21667 12.7378 2.13333 12.7126 2.05 12.6621C1.96667 12.6125 1.9 12.5276 1.85 12.4074L1.35 11.1156L0.275 10.5147C0.175 10.4546 0.104333 10.3745 0.063 10.2744C0.021 10.1743 0 10.0741 0 9.97398C0 9.87383 0.021 9.77369 0.063 9.67355C0.104333 9.57341 0.175 9.4933 0.275 9.43322L1.35 8.83238L1.85 7.54057C1.9 7.4204 1.96667 7.33508 2.05 7.28461C2.13333 7.23494 2.21667 7.2101 2.3 7.2101C2.38333 7.2101 2.46667 7.23494 2.55 7.28461C2.63333 7.33508 2.7 7.4204 2.75 7.54057L3.25 8.83238L4.325 9.43322C4.50833 9.53336 4.6 9.71361 4.6 9.97398C4.6 10.2343 4.50833 10.4146 4.325 10.5147L3.25 11.1156L2.75 12.4074C2.7 12.5276 2.63333 12.6125 2.55 12.6621C2.46667 12.7126 2.38333 12.7378 2.3 12.7378ZM13.3 10.3345C13.2167 10.3345 13.1333 10.3092 13.05 10.2588C12.9667 10.2091 12.9 10.1242 12.85 10.004L12.35 8.71221L11.275 8.11137C11.175 8.05128 11.1043 7.97117 11.063 7.87103C11.021 7.77089 11 7.67075 11 7.57061C11 7.47047 11.021 7.37033 11.063 7.27019C11.1043 7.17005 11.175 7.08993 11.275 7.02985L12.35 6.42901L12.85 5.1372C12.9 5.01703 12.9667 4.93171 13.05 4.88124C13.1333 4.83157 13.2167 4.80673 13.3 4.80673C13.3833 4.80673 13.4667 4.83157 13.55 4.88124C13.6333 4.93171 13.7 5.01703 13.75 5.1372L14.25 6.42901L15.325 7.02985C15.425 7.08993 15.496 7.17005 15.538 7.27019C15.5793 7.37033 15.6 7.47047 15.6 7.57061C15.6 7.67075 15.5793 7.77089 15.538 7.87103C15.496 7.97117 15.425 8.05128 15.325 8.11137L14.25 8.71221L13.75 10.004C13.7 10.1242 13.6333 10.2091 13.55 10.2588C13.4667 10.3092 13.3833 10.3345 13.3 10.3345ZM6.8 6.72943C6.71667 6.72943 6.63333 6.69939 6.55 6.6393C6.46667 6.57922 6.4 6.48909 6.35 6.36892L5.7 4.68657L4.3 3.90547C4.2 3.84539 4.125 3.76528 4.075 3.66514C4.025 3.565 4 3.46485 4 3.36471C4 3.26457 4.025 3.16443 4.075 3.06429C4.125 2.96415 4.2 2.88404 4.3 2.82396L5.7 2.04286L6.35 0.360505C6.4 0.240337 6.46667 0.150211 6.55 0.0901263C6.63333 0.0300421 6.71667 0 6.8 0C6.88333 0 6.96667 0.0300421 7.05 0.0901263C7.13333 0.150211 7.2 0.240337 7.25 0.360505L7.9 2.04286L9.3 2.82396C9.4 2.88404 9.475 2.96415 9.525 3.06429C9.575 3.16443 9.6 3.26457 9.6 3.36471C9.6 3.46485 9.575 3.565 9.525 3.66514C9.475 3.76528 9.4 3.84539 9.3 3.90547L7.9 4.68657L7.25 6.36892C7.2 6.48909 7.13333 6.57922 7.05 6.6393C6.96667 6.69939 6.88333 6.72943 6.8 6.72943Z" fill="black"/>
</svg>
