<svg width="32" height="32" viewBox="0 0 32 32" fill="none" xmlns="http://www.w3.org/2000/svg">
<g clip-path="url(#clip0_228_928)">
<rect width="32" height="32" rx="4" fill="#001A4C"/>
<path d="M14.9091 7.27273V5.09091C14.9091 4.49091 15.4 4 16 4C16.6 4 17.0909 4.49091 17.0909 5.09091V7.27273C17.0909 7.87273 16.6 8.36364 16 8.36364C15.4 8.36364 14.9091 7.87273 14.9091 7.27273ZM22.9382 10.6L24.4764 9.05091C24.9018 8.62545 24.9018 7.93818 24.4764 7.51273C24.0509 7.08727 23.3636 7.08727 22.9382 7.51273L21.4 9.06182C20.9745 9.48727 20.9745 10.1745 21.4 10.6C21.8255 11.0255 22.5127 11.0255 22.9382 10.6ZM26.9091 14.9091H24.7273C24.1273 14.9091 23.6364 15.4 23.6364 16C23.6364 16.6 24.1273 17.0909 24.7273 17.0909H26.9091C27.5091 17.0909 28 16.6 28 16C28 15.4 27.5091 14.9091 26.9091 14.9091ZM16 23.6364C15.4 23.6364 14.9091 24.1273 14.9091 24.7273V26.9091C14.9091 27.5091 15.4 28 16 28C16.6 28 17.0909 27.5091 17.0909 26.9091V24.7273C17.0909 24.1273 16.6 23.6364 16 23.6364ZM9.06182 10.6L7.51273 9.06182C7.08727 8.63636 7.08727 7.93818 7.51273 7.52364C7.93818 7.10909 8.63636 7.09818 9.05091 7.52364L10.5891 9.06182C11.0145 9.48727 11.0145 10.1855 10.5891 10.6C10.1636 11.0145 9.47636 11.0255 9.06182 10.6ZM21.4 21.4C20.9745 21.8255 20.9745 22.5236 21.4 22.9382L22.9382 24.4764C23.3636 24.9018 24.0618 24.9018 24.4764 24.4764C24.9018 24.0509 24.9018 23.3527 24.4764 22.9382L22.9382 21.4C22.5236 20.9745 21.8255 20.9745 21.4 21.4ZM5.09091 17.0909H7.27273C7.87273 17.0909 8.36364 16.6 8.36364 16C8.36364 15.4 7.87273 14.9091 7.27273 14.9091H5.09091C4.49091 14.9091 4 15.4 4 16C4 16.6 4.49091 17.0909 5.09091 17.0909ZM9.06182 24.4873L10.6 22.9491C11.0255 22.5236 11.0255 21.8255 10.6 21.4109C10.1745 20.9964 9.47636 20.9855 9.06182 21.4109L7.52364 22.9491C7.09818 23.3745 7.09818 24.0727 7.52364 24.4873C7.93818 24.9127 8.63636 24.9127 9.06182 24.4873ZM16 9.45455C12.3891 9.45455 9.45455 12.3891 9.45455 16C9.45455 19.6109 12.3891 22.5455 16 22.5455C19.6109 22.5455 22.5455 19.6109 22.5455 16C22.5455 12.3891 19.6109 9.45455 16 9.45455Z" fill="white"/>
</g>
<defs>
<clipPath id="clip0_228_928">
<rect width="32" height="32" rx="4" fill="white"/>
</clipPath>
</defs>
</svg>
